<?xml version="1.0" encoding="utf-8"?>
<!-- Generator: Adobe Illustrator 25.0.0, SVG Export Plug-In . SVG Version: 6.00 Build 0)  -->
<svg version="1.1" id="Layer_1" xmlns="http://www.w3.org/2000/svg" xmlns:xlink="http://www.w3.org/1999/xlink" x="0px" y="0px"
	 viewBox="0 0 396.28 136.75" style="enable-background:new 0 0 396.28 136.75;" xml:space="preserve">
<style type="text/css">
	.st0{fill:#FFFFFF;}
	.st1{fill:#1F1B19;}
	.st2{fill:url(#SVGID_1_);}
	.st3{fill:url(#SVGID_2_);}
	.st4{fill:url(#SVGID_3_);}
	.st5{fill:url(#SVGID_4_);}
	.st6{fill:url(#SVGID_5_);}
	.st7{fill:url(#SVGID_6_);}
	.st8{fill:url(#SVGID_7_);}
	.st9{fill:url(#SVGID_8_);}
	.st10{fill:none;stroke:#1F1B19;stroke-miterlimit:10;}
</style>
<g>
	<g>
		<path class="st0" d="M282.38,125.93"/>
		<polygon class="st0" points="66.57,33.87 66.57,33.87 66.57,33.88 		"/>
		<polygon class="st0" points="39.62,67.4 39.62,67.39 39.62,67.39 		"/>
	</g>
	<g>
		<path class="st1" d="M149.65,79.17c0-4.04,0.43-7.66,0.43-11.35c0-3.83-1.35-5.6-4.11-5.6c-5.32,0-9.72,10.14-9.72,23.76
			c0,1.42-0.35,2.06-1.63,2.06h-4.26c-0.92,0-1.49-0.71-1.49-1.7c0-4.97,0.28-10.43,0.28-18.16c0-3.9-1.06-5.96-4.04-5.96
			c-6.81,0-10.36,13.83-10.36,20.85v3.33c0,1.06-0.57,1.63-1.42,1.63h-4.4c-1.06,0-1.56-0.57-1.56-1.7V58.24
			c0-1.21,0.57-1.77,1.56-1.77h4.33c1.13,0,1.49,0.64,1.49,1.7c0,0.85-0.35,5.11-0.5,7.09l0.28,0.07c2.2-4.89,6.1-9.72,12.63-9.72
			c5.03,0,8.08,3.69,8.08,8.23l-0.07,1.63l0.21,0.07c1.77-4.75,5.81-9.93,12.91-9.93c5.67,0,9.5,3.48,9.5,9.22
			c0,2.13-0.5,7.31-0.5,12.06c0,3.05,1.28,5.39,4.11,5.39c4.11,0,7.59-5.75,8.94-9.29c0.14-0.35,0.29-0.5,0.64-0.5
			c0.57,0,4.04,1.56,4.04,2.27c0,0.21-0.14,0.71-0.21,0.92c-2.06,6.1-7.23,13.12-15.11,13.12C154.4,88.81,149.65,84.98,149.65,79.17
			z"/>
		<path class="st1" d="M169.72,46.19c0-2.41,1.84-4.18,4.4-4.18c2.41,0,4.25,1.42,4.25,4.11c0,2.55-1.63,4.4-4.4,4.4
			C171.5,50.51,169.72,48.88,169.72,46.19z M170.22,76.76V58.1c0-0.99,0.5-1.63,1.49-1.63h4.54c1.06,0,1.56,0.57,1.56,1.7
			c0,3.26-0.28,13.12-0.28,16.81c0,4.4,1.56,7.3,5.11,7.3c4.4,0,7.8-5.67,9.22-9.22c0.14-0.35,0.21-0.57,0.64-0.57
			c0.57,0,4.04,1.63,4.04,2.27c0,0.21-0.07,0.5-0.14,0.71c-1.92,5.67-6.81,13.33-15.39,13.33
			C174.33,88.81,170.22,84.35,170.22,76.76z"/>
		<path class="st1" d="M213.42,79.17c0-4.04,0.42-7.52,0.42-11.42c0-3.4-1.28-5.53-4.4-5.53c-6.6,0-10.36,13.19-10.36,21.49v2.55
			c0,1.13-0.43,1.77-1.56,1.77h-4.26c-1.13,0-1.56-0.57-1.56-1.77V58.32c0-1.35,0.5-1.85,1.63-1.85h4.18c1.06,0,1.56,0.5,1.56,1.7
			c0,1.13-0.35,5.25-0.5,7.16l0.28,0.07c2.13-5.04,6.17-9.79,12.91-9.79c6.17,0,9.79,3.76,9.79,9.5c0,2.06-0.5,7.09-0.5,11.35
			c0,3.62,1.35,5.81,4.11,5.81c3.97,0,7.31-5.18,8.94-9.29c0.14-0.35,0.35-0.5,0.64-0.5c0.57,0,4.04,1.63,4.04,2.27
			c0,0.21-0.07,0.5-0.14,0.71c-1.56,4.75-6.45,13.33-15.18,13.33C218.03,88.81,213.42,84.91,213.42,79.17z"/>
		<path class="st1" d="M233.49,46.19c0-2.41,1.84-4.18,4.4-4.18c2.41,0,4.25,1.42,4.25,4.11c0,2.55-1.63,4.4-4.4,4.4
			C235.27,50.51,233.49,48.88,233.49,46.19z M233.99,76.76V58.1c0-0.99,0.5-1.63,1.49-1.63h4.54c1.06,0,1.56,0.57,1.56,1.7
			c0,3.26-0.28,13.12-0.28,16.81c0,4.4,1.56,7.3,5.11,7.3c4.4,0,7.8-5.67,9.22-9.22c0.14-0.35,0.21-0.57,0.64-0.57
			c0.57,0,4.04,1.63,4.04,2.27c0,0.21-0.07,0.5-0.14,0.71c-1.92,5.67-6.81,13.33-15.39,13.33C238.1,88.81,233.99,84.35,233.99,76.76
			z"/>
		<linearGradient id="SVGID_1_" gradientUnits="userSpaceOnUse" x1="255.4069" y1="63.4576" x2="300.5162" y2="63.4576">
			<stop  offset="3.665865e-03" style="stop-color:#707D78"/>
			<stop  offset="1" style="stop-color:#B3D087"/>
		</linearGradient>
		<path class="st2" d="M286.62,67.11h-0.85c0.92,1.84,1.42,3.97,1.42,6.24c0,9.01-6.59,15.46-16.1,15.46
			c-10.21,0-15.68-8.23-15.68-18.51v-7.94c0-12.2,4.26-24.26,15.53-24.26c5.82,0,10.21,4.04,10.21,9.93
			c0,9.08-9.86,16.53-18.58,19.01v2.77c0,6.53,2.77,12.48,8.94,12.48c4.82,0,8.37-3.83,8.37-8.94c0-3.55-2.06-6.17-4.4-7.16
			c-0.28-0.14-0.5-0.35-0.5-0.78c0-1.06,2.48-5.25,3.4-5.25c0.85,0,2.77,1.28,8.01,1.28c5.89,0,9.15-2.76,10.99-4.47
			c0.28-0.28,0.5-0.35,0.78-0.35c0.78,0,2.34,3.12,2.34,3.9C300.52,62,295.34,67.11,286.62,67.11z M262.64,60.66
			c5.46-1.92,11.85-7.16,11.85-12.62c0-2.41-1.42-3.83-3.62-3.83C265.55,44.2,262.92,51.72,262.64,60.66z"/>
		<linearGradient id="SVGID_2_" gradientUnits="userSpaceOnUse" x1="297.0445" y1="81.6146" x2="343.9976" y2="81.6146">
			<stop  offset="3.665865e-03" style="stop-color:#707D78"/>
			<stop  offset="1" style="stop-color:#B3D087"/>
		</linearGradient>
		<path class="st3" d="M344,74.77c0,0.21-0.07,0.57-0.14,0.78c-2.2,6.74-7.23,12.41-15.6,12.41c-0.42,0-0.92-0.07-1.35-0.14
			c-0.35,11.63-6.24,18.94-17.23,18.94c-6.39,0-10.99-3.76-10.99-5.46c0-1.06,2.55-4.54,3.55-4.54c0.28,0,0.57,0.14,1.21,0.64
			c1.42,1.21,3.69,2.77,6.6,2.77c5.32,0,10.07-3.55,10.07-14.04v-7.16l-0.28-0.07c-1.77,4.97-6.17,9.93-12.77,9.93
			c-6.31,0-10-4.18-10-11.63V58.17c0-1.13,0.64-1.7,1.56-1.7h4.54c1.06,0,1.49,0.64,1.49,1.7c0,4.26-0.28,11.63-0.28,17.16
			c0,4.04,0.99,6.95,4.61,6.95c6.17,0,10.36-11.84,10.36-21.49v-2.62c0-1.06,0.5-1.7,1.42-1.7h4.68c1.06,0,1.56,0.64,1.56,1.63
			c0,1.06-0.07,14.54-0.07,23.05c0.64,0.14,1.35,0.21,2.13,0.21c5.46,0,8.51-3.83,10.36-8.37c0.14-0.35,0.28-0.5,0.57-0.5
			C340.59,72.5,344,74.13,344,74.77z"/>
		<linearGradient id="SVGID_3_" gradientUnits="userSpaceOnUse" x1="339.1792" y1="63.4576" x2="374.7841" y2="63.4576">
			<stop  offset="3.665865e-03" style="stop-color:#707D78"/>
			<stop  offset="1" style="stop-color:#B3D087"/>
		</linearGradient>
		<path class="st4" d="M374.78,74.77c0,0.28-0.14,0.64-0.21,0.85c-2.48,7.3-8.86,13.19-18.87,13.19c-10.21,0-16.53-7.09-16.53-17.8
			v-8.87c0-12.98,4.82-24.04,15.25-24.04c6.31,0,10.28,4.33,10.28,10.14c0,8.58-8.65,15.89-18.44,18.79v3.76
			c0,7.23,4.04,11.91,10.64,11.91c7.38,0,11.42-5.25,13.19-9.72c0.14-0.35,0.35-0.5,0.64-0.5C371.31,72.5,374.78,74.13,374.78,74.77
			z M346.27,60.66c5.18-1.84,11.85-6.67,11.85-12.27c0-2.41-1.35-4.18-3.83-4.18C348.97,44.2,346.49,53,346.27,60.66z"/>
		<linearGradient id="SVGID_4_" gradientUnits="userSpaceOnUse" x1="369.4666" y1="65.4084" x2="396.2763" y2="65.4084">
			<stop  offset="3.665865e-03" style="stop-color:#707D78"/>
			<stop  offset="1" style="stop-color:#B3D087"/>
		</linearGradient>
		<path class="st5" d="M369.47,46.19c0-2.41,1.84-4.18,4.4-4.18c2.41,0,4.25,1.42,4.25,4.11c0,2.55-1.63,4.4-4.4,4.4
			C371.24,50.51,369.47,48.88,369.47,46.19z M369.96,76.76V58.1c0-0.99,0.5-1.63,1.49-1.63h4.54c1.06,0,1.56,0.57,1.56,1.7
			c0,3.26-0.28,13.12-0.28,16.81c0,4.4,1.56,7.3,5.11,7.3c4.4,0,7.8-5.67,9.22-9.22c0.14-0.35,0.21-0.57,0.64-0.57
			c0.57,0,4.04,1.63,4.04,2.27c0,0.21-0.07,0.5-0.14,0.71c-1.92,5.67-6.81,13.33-15.39,13.33
			C374.08,88.81,369.96,84.35,369.96,76.76z"/>
		<g>
			<path class="st1" d="M107.37,116.6c0-2.87,1.88-4.45,4.22-4.45c1.49,0,2.66,0.55,3.33,1.67c0.64-1.12,1.93-1.67,3.31-1.67
				c2.36,0,4.25,1.58,4.25,4.45v6.73c0,0.53-0.41,0.94-0.92,0.94c-0.53,0-0.92-0.41-0.92-0.94v-6.75c0-1.81-1.06-2.73-2.41-2.73
				c-1.33,0-2.39,0.92-2.39,2.73v6.75c0,0.53-0.41,0.94-0.92,0.94c-0.53,0-0.92-0.41-0.92-0.94v-6.75c0-1.81-1.06-2.73-2.41-2.73
				c-1.33,0-2.39,0.92-2.39,2.73v6.75c0,0.53-0.41,0.94-0.92,0.94c-0.53,0-0.92-0.41-0.92-0.94V116.6z"/>
			<path class="st1" d="M130.87,109.53c0-0.64,0.51-1.15,1.15-1.15c0.62,0,1.15,0.51,1.15,1.15c0,0.62-0.53,1.15-1.15,1.15
				C131.38,110.67,130.87,110.15,130.87,109.53z M131.1,113.11c0-0.51,0.39-0.92,0.92-0.92c0.51,0,0.92,0.41,0.92,0.92v10.21
				c0,0.53-0.41,0.94-0.92,0.94c-0.53,0-0.92-0.41-0.92-0.94V113.11z"/>
			<path class="st1" d="M141.04,118.23c0-3.4,2.62-6.08,6.06-6.08c1.9,0,3.51,0.83,4.48,1.97c0.16,0.18,0.28,0.44,0.28,0.64
				c0,0.51-0.39,0.85-0.92,0.85c-0.34,0-0.53-0.18-0.78-0.39c-0.71-0.8-1.74-1.38-3.05-1.38c-2.34,0-4.2,1.93-4.2,4.38
				c0,2.43,1.86,4.38,4.2,4.38c1.29,0,2.34-0.57,3.05-1.38c0.23-0.21,0.44-0.41,0.78-0.41c0.53,0,0.92,0.37,0.92,0.87
				c0,0.19-0.11,0.44-0.28,0.62c-0.96,1.15-2.55,2-4.48,2C143.66,124.31,141.04,121.62,141.04,118.23z"/>
			<path class="st1" d="M159.97,117.1c0-2.96,1.88-4.96,4.73-4.96c0.46,0,0.85,0.37,0.85,0.85c0,0.46-0.39,0.85-0.85,0.85
				c-1.7,0-2.89,1.12-2.89,3.26v6.22c0,0.53-0.41,0.94-0.92,0.94c-0.53,0-0.92-0.41-0.92-0.94V117.1z"/>
			<path class="st1" d="M172.07,118.23c0-3.4,2.62-6.08,6.06-6.08s6.04,2.69,6.04,6.08c0,3.4-2.59,6.08-6.04,6.08
				S172.07,121.62,172.07,118.23z M182.3,118.23c0-2.43-1.81-4.38-4.18-4.38s-4.2,1.95-4.2,4.38c0,2.41,1.84,4.38,4.2,4.38
				S182.3,120.64,182.3,118.23z"/>
			<path class="st1" d="M191.76,118.23c0-3.4,2.57-6.08,5.95-6.08c1.72,0,3.21,0.71,4.29,1.84v-0.87c0-0.51,0.41-0.92,0.92-0.92
				c0.53,0,0.92,0.41,0.92,0.92v9.5c0,3.44-2.73,6.06-6.13,6.06c-1.93,0-3.44-0.8-4.43-1.9c-0.18-0.18-0.28-0.44-0.28-0.62
				c0-0.53,0.39-0.87,0.9-0.87c0.37,0,0.57,0.21,0.8,0.41c0.83,0.85,1.84,1.28,3.01,1.28c2.46,0,4.29-1.97,4.29-4.36v-0.14
				c-1.08,1.15-2.57,1.84-4.29,1.84C194.33,124.31,191.76,121.62,191.76,118.23z M201.99,118.23c0-2.48-1.84-4.38-4.18-4.38
				c-2.34,0-4.2,1.9-4.2,4.38c0,2.48,1.86,4.38,4.2,4.38C200.16,122.61,201.99,120.7,201.99,118.23z"/>
			<path class="st1" d="M212.48,117.1c0-2.96,1.88-4.96,4.73-4.96c0.46,0,0.85,0.37,0.85,0.85c0,0.46-0.39,0.85-0.85,0.85
				c-1.7,0-2.89,1.12-2.89,3.26v6.22c0,0.53-0.41,0.94-0.92,0.94c-0.53,0-0.92-0.41-0.92-0.94V117.1z"/>
			<path class="st1" d="M224.57,118.23c0-3.4,2.62-6.08,6.06-6.08c1.67,0,3.08,0.64,3.97,1.47c0.21,0.18,0.34,0.44,0.34,0.71
				c0,0.23-0.07,0.44-0.3,0.69l-4.09,4.89c-0.18,0.21-0.39,0.3-0.64,0.3c-0.51,0-0.87-0.34-0.87-0.83c0-0.21,0.04-0.41,0.21-0.57
				l3.58-4.22c-0.6-0.51-1.45-0.73-2.2-0.73c-2.34,0-4.2,1.93-4.2,4.38c0,2.43,1.84,4.38,4.2,4.38c1.31,0,2.34-0.57,3.05-1.38
				c0.25-0.23,0.46-0.41,0.78-0.41c0.53,0,0.92,0.37,0.92,0.87c0,0.19-0.11,0.44-0.28,0.62c-0.96,1.15-2.55,2-4.48,2
				C227.21,124.31,224.57,121.62,224.57,118.23z"/>
			<path class="st1" d="M242.5,118.23c0-3.4,2.62-6.08,6.06-6.08c1.67,0,3.08,0.64,3.97,1.47c0.21,0.18,0.34,0.44,0.34,0.71
				c0,0.23-0.07,0.44-0.3,0.69l-4.09,4.89c-0.18,0.21-0.39,0.3-0.64,0.3c-0.51,0-0.87-0.34-0.87-0.83c0-0.21,0.04-0.41,0.21-0.57
				l3.58-4.22c-0.6-0.51-1.45-0.73-2.2-0.73c-2.34,0-4.2,1.93-4.2,4.38c0,2.43,1.84,4.38,4.2,4.38c1.31,0,2.34-0.57,3.05-1.38
				c0.25-0.23,0.46-0.41,0.78-0.41c0.53,0,0.92,0.37,0.92,0.87c0,0.19-0.11,0.44-0.28,0.62c-0.96,1.15-2.55,2-4.48,2
				C245.14,124.31,242.5,121.62,242.5,118.23z"/>
			<path class="st1" d="M261.36,117.45c0-3.33,2.23-5.3,5.03-5.3c2.82,0,5.05,1.97,5.05,5.3v5.88c0,0.53-0.41,0.94-0.92,0.94
				c-0.53,0-0.92-0.41-0.92-0.94v-5.92c0-2.34-1.42-3.56-3.21-3.56c-1.77,0-3.19,1.22-3.19,3.56v5.92c0,0.53-0.41,0.94-0.92,0.94
				c-0.53,0-0.92-0.41-0.92-0.94V117.45z"/>
			<path class="st1" d="M280.36,120.64c0.3,0,0.66,0.18,0.78,0.55c0.21,0.64,0.8,1.47,2.04,1.47c1.1,0,1.81-0.8,1.81-1.68
				c0-1.15-0.92-1.67-2.14-2.09c-1.58-0.53-3.19-1.15-3.19-3.42c0-1.88,1.49-3.33,3.53-3.33c1.93,0,3.56,1.19,3.56,2.75
				c0,0.46-0.37,0.83-0.83,0.83c-0.25,0-0.67-0.11-0.8-0.64c-0.16-0.6-0.85-1.31-1.93-1.31c-1.12,0-1.77,0.8-1.77,1.7
				c0,1.22,1.1,1.63,2.46,2.07c1.45,0.44,2.94,1.24,2.94,3.4c0,1.81-1.56,3.37-3.65,3.37c-2,0-3.65-1.35-3.65-2.85
				C279.54,121,279.9,120.64,280.36,120.64z"/>
		</g>
		<g>
			
				<linearGradient id="SVGID_5_" gradientUnits="userSpaceOnUse" x1="62.0442" y1="111.506" x2="82.8649" y2="111.506" gradientTransform="matrix(0.9963 0.0863 -0.0863 0.9963 10.6991 -100.0604)">
				<stop  offset="3.665865e-03" style="stop-color:#707D78"/>
				<stop  offset="1" style="stop-color:#B3D087"/>
			</linearGradient>
			<path class="st6" d="M61.83,29.11c-0.05,2.53,7.21,6.52,18.52-12.26C89.41,1.83,82.33,0.92,75.9,6.33
				C71.61,9.94,62.06,17.65,61.83,29.11z"/>
			
				<linearGradient id="SVGID_6_" gradientUnits="userSpaceOnUse" x1="22.7065" y1="143.6073" x2="49.1872" y2="143.6073" gradientTransform="matrix(0.9963 0.0863 -0.0863 0.9963 10.6991 -100.0604)">
				<stop  offset="0" style="stop-color:#B3D087"/>
				<stop  offset="0.9963" style="stop-color:#707D78"/>
			</linearGradient>
			<path class="st7" d="M25.9,26.65c2.02-0.25,7.93,2.26,11.15,6.24s9.57,11.38,9.23,23.48c-0.18,6.62,0.23,10.57-6.47,8.85
				c-4.15-1.07-14.79-9.62-17.08-20.16C19.27,29.07,25.9,26.65,25.9,26.65z"/>
			
				<linearGradient id="SVGID_7_" gradientUnits="userSpaceOnUse" x1="4.6317" y1="194.6316" x2="61.3973" y2="194.6316" gradientTransform="matrix(0.9963 0.0863 -0.0863 0.9963 10.6991 -100.0604)">
				<stop  offset="3.665865e-03" style="stop-color:#707D78"/>
				<stop  offset="1" style="stop-color:#B3D087"/>
			</linearGradient>
			<path class="st8" d="M39.86,92.78c4.49,5.34,10.01,16.31,12.98,24.48c1.42,3.91,0.05,8.75-13.73,6.59
				C25.34,121.7,3.85,111.04,0.3,82.56S25.59,75.8,39.86,92.78z"/>
			
				<linearGradient id="SVGID_8_" gradientUnits="userSpaceOnUse" x1="60.1001" y1="162.2994" x2="95.9378" y2="162.2994" gradientTransform="matrix(0.9963 0.0863 -0.0863 0.9963 10.6991 -100.0604)">
				<stop  offset="3.665865e-03" style="stop-color:#707D78"/>
				<stop  offset="1" style="stop-color:#B3D087"/>
			</linearGradient>
			<path class="st9" d="M55.25,82.96c1.79-12.93,8.28-30.92,20.51-38.4c15.81-9.67,17.68-1.97,17.78-1.2
				c0.74,5.55,2.88,40.75-31.41,53.02C56.35,98.45,53.62,94.71,55.25,82.96z"/>
			<path class="st10" d="M65.74,136.44C43.46,108.15,41.5,27.2,76.62,0.98c1.47-1.1,3.57-0.2,3.84,1.62
				c0.9,6.16,0.45,18.91-15.27,28.91c-1.67,1.06-3.78-0.46-3.36-2.39c0.65-2.98,2.27-7.53,6.16-13.86"/>
			<path class="st10" d="M50.85,53.27c0.8-7.94-7.43-24.4-20.37-28.55c-1.57-0.5-3.23,0.4-3.71,1.97
				c-2.01,6.56-4.94,24.08,14.38,38.44c1.8,1.34,4.44,0.16,4.6-2.07c0.32-4.36-0.51-11.48-6.64-19.72"/>
			<path class="st10" d="M49.55,76.77c0.26-8.45,11.37-36.92,39.43-38.52c1.48-0.08,2.7,1.1,2.59,2.58
				c-0.82,10.32-5.51,47.72-30.4,55.81c-2.75,0.89-5.54-1.17-5.49-4.06c0.09-4.81,1.99-12.91,10.61-24.07"/>
			<path class="st10" d="M53.23,107.19c0,0-11.07-36.25-46.4-38.64c-1.74-0.12-3.24,1.23-3.2,2.98
				c0.22,10.82,4.07,46.51,44.78,51.32c3.12,0.37,5.5-2.62,4.44-5.58c-2.18-6.04-7.69-15.76-21.62-25.09"/>
		</g>
	</g>
</g>
</svg>
